<svg xmlns="http://www.w3.org/2000/svg" viewBox="10 80 1440 120">
  <path fill="#0099ff" fill-opacity="0.6"
    d="M0,224L7.7,213.3C15.5,203,31,181,46,149.3C61.9,117,77,75,93,80C108.4,85,124,139,139,186.7C154.8,235,170,277,186,261.3C201.3,245,217,171,232,170.7C247.7,171,263,245,279,229.3C294.2,213,310,107,325,80C340.6,53,356,107,372,160C387.1,213,403,267,418,245.3C433.5,224,449,128,465,90.7C480,53,495,75,511,106.7C526.5,139,542,181,557,170.7C572.9,160,588,96,604,112C619.4,128,635,224,650,229.3C665.8,235,681,149,697,144C712.3,139,728,213,743,229.3C758.7,245,774,203,790,202.7C805.2,203,821,245,836,266.7C851.6,288,867,288,883,245.3C898.1,203,914,117,929,101.3C944.5,85,960,139,975,160C991,181,1006,171,1022,160C1037.4,149,1053,139,1068,160C1083.9,181,1099,235,1115,240C1130.3,245,1146,203,1161,192C1176.8,181,1192,203,1208,181.3C1223.2,160,1239,96,1254,101.3C1269.7,107,1285,181,1301,181.3C1316.1,181,1332,107,1347,69.3C1362.6,32,1378,32,1394,53.3C1409,75,1425,117,1432,138.7L1440,160L1440,320L1432.3,320C1424.5,320,1409,320,1394,320C1378.1,320,1363,320,1347,320C1331.6,320,1316,320,1301,320C1285.2,320,1270,320,1254,320C1238.7,320,1223,320,1208,320C1192.3,320,1177,320,1161,320C1145.8,320,1130,320,1115,320C1099.4,320,1084,320,1068,320C1052.9,320,1037,320,1022,320C1006.5,320,991,320,975,320C960,320,945,320,929,320C913.5,320,898,320,883,320C867.1,320,852,320,836,320C820.6,320,805,320,790,320C774.2,320,759,320,743,320C727.7,320,712,320,697,320C681.3,320,666,320,650,320C634.8,320,619,320,604,320C588.4,320,573,320,557,320C541.9,320,526,320,511,320C495.5,320,480,320,465,320C449,320,434,320,418,320C402.6,320,387,320,372,320C356.1,320,341,320,325,320C309.7,320,294,320,279,320C263.2,320,248,320,232,320C216.8,320,201,320,186,320C170.3,320,155,320,139,320C123.9,320,108,320,93,320C77.4,320,62,320,46,320C31,320,15,320,8,320L0,320Z">
  </path>
</svg>