<svg t="1684822867560" class="icon" viewBox="0 0 1024 1024" version="1.1" xmlns="http://www.w3.org/2000/svg" p-id="2770" width="200" height="200"><path d="M692.1 61H331.9c-43.9 0-79.7 35.7-79.7 79.7v753.1c0 43.9 35.7 79.7 79.7 79.7h360.3c43.9 0 79.7-35.7 79.7-79.7V140.7c-0.1-43.9-35.8-79.7-79.8-79.7z m50.7 832.8c0 27.9-22.7 50.7-50.7 50.7H331.9c-27.9 0-50.7-22.7-50.7-50.7V140.7c0-27.9 22.7-50.7 50.7-50.7h360.3c27.9 0 50.7 22.7 50.7 50.7v753.1z" fill="#353535" p-id="2771"></path><path d="M682.1 190.8H341.9c-16.1 0-29.2 13.1-29.2 29.2v547.5c0 16.1 13.1 29.2 29.2 29.2h340.2c16.1 0 29.2-13.1 29.2-29.2V219.9c0-16.1-13.1-29.1-29.2-29.1z m0.2 576.7c0 0.1-0.1 0.2-0.2 0.2l-340.4-0.2 0.2-547.7 340.4 0.2v547.5zM449.2 154.9h125.6c8 0 14.5-6.5 14.5-14.5s-6.5-14.5-14.5-14.5H449.2c-8 0-14.5 6.5-14.5 14.5s6.5 14.5 14.5 14.5zM512 823.9c-26 0-47.2 21.2-47.2 47.2 0 26 21.2 47.2 47.2 47.2 26 0 47.2-21.2 47.2-47.2 0-26-21.2-47.2-47.2-47.2z m0 65.4c-10 0-18.2-8.2-18.2-18.2s8.2-18.2 18.2-18.2 18.2 8.2 18.2 18.2-8.2 18.2-18.2 18.2z" fill="#353535" p-id="2772"></path></svg>